<svg xmlns="http://www.w3.org/2000/svg" version="1.1" xmlns:xlink="http://www.w3.org/1999/xlink" xmlns:svgjs="http://svgjs.com/svgjs" width="1440" height="560" preserveAspectRatio="none" viewBox="0 0 1440 560"><g mask="url(&quot;#SvgjsMask1002&quot;)" fill="none"><rect width="1440" height="560" x="0" y="0" fill="#0e2a47"></rect><path d="M 0,144 C 57.6,133.6 172.8,90.8 288,92 C 403.2,93.2 460.8,162 576,150 C 691.2,138 748.8,14.6 864,32 C 979.2,49.4 1036.8,221.4 1152,237 C 1267.2,252.6 1382.4,135.4 1440,110L1440 560L0 560z" fill="#184a7e"></path><path d="M 0,529 C 96,496.6 288,381.8 480,367 C 672,352.2 768,467 960,455 C 1152,443 1344,336.6 1440,307L1440 560L0 560z" fill="#2264ab"></path></g><defs><mask id="SvgjsMask1002"><rect width="1440" height="560" fill="#ffffff"></rect></mask></defs></svg>